<?xml version="1.0" encoding="UTF-8"?>
<svg width="385px" height="385px" viewBox="0 0 385 385" version="1.1" xmlns="http://www.w3.org/2000/svg" xmlns:xlink="http://www.w3.org/1999/xlink">
    <!-- Generator: Sketch 62 (91390) - https://sketch.com -->
    <title>next</title>
    <desc>Created with Sketch.</desc>
    <g id="Page-1" stroke="none" stroke-width="1" fill="none" fill-rule="evenodd">
        <g id="next" fill="#FFFFFF" fill-rule="nonzero">
            <path d="M192.485,0 C86.173,0 0,86.173 0,192.485 C0,298.785 86.173,384.97 192.485,384.97 C298.785,384.97 384.97,298.785 384.97,192.485 C384.97,86.173 298.785,0 192.485,0 Z M192.485,360.909 C99.611,360.909 24.061,285.359 24.061,192.485 C24.061,99.611 99.611,23.688 192.485,23.688 C285.359,23.688 360.909,99.611 360.909,192.485 C360.909,285.359 285.359,360.909 192.485,360.909 Z" id="Shape"></path>
            <path d="M166.114,99.503 C161.41,94.763 153.795,94.763 149.103,99.503 C144.399,104.255 144.399,111.942 149.103,116.694 L223.631,192.304 L149.091,267.914 C144.387,272.654 144.387,280.353 149.091,285.105 C153.795,289.845 161.41,289.845 166.102,285.105 L249.111,200.905 C253.683,196.273 253.695,188.345 249.111,183.714 L166.114,99.503 Z" id="Path"></path>
        </g>
    </g>
</svg>